<svg width="165" height="152" viewBox="0 0 165 152" fill="none" xmlns="http://www.w3.org/2000/svg">
<g clip-path="url(#clip0_41_264)">
<path d="M82.75 13C44.9375 13 14 41.5 14 76.3333C14 111.167 44.9375 139.667 82.75 139.667C120.562 139.667 151.5 111.167 151.5 76.3333C151.5 41.5 120.562 13 82.75 13ZM82.75 127C52.4313 127 27.75 104.263 27.75 76.3333C27.75 48.4033 52.4313 25.6667 82.75 25.6667C113.069 25.6667 137.75 48.4033 137.75 76.3333C137.75 104.263 113.069 127 82.75 127ZM114.306 48.34L69 90.0767L51.1937 73.7367L41.5 82.6667L69 108L124 57.3333L114.306 48.34Z" fill="#18E522"/>
</g>
<defs>
<clipPath id="clip0_41_264">
<rect width="165" height="152" fill="white"/>
</clipPath>
</defs>
</svg>
