<svg width="834" height="286" viewBox="0 0 834 286" fill="none" xmlns="http://www.w3.org/2000/svg">
<g filter="url(#filter0_dd_54_107)">
<path d="M83.4 0L166.8 71.5H291.9L208.5 0H291.9L375.3 71.5H500.4L417 0H500.4L583.8 71.5H708.9L625.5 0H750.6C773.535 0 793.176 3.5035 809.522 10.5105C825.868 17.5175 834.028 25.9307 834 35.75V250.25C834 260.081 825.841 268.5 809.522 275.507C793.203 282.514 773.563 286.012 750.6 286H83.4C60.465 286 40.8382 282.502 24.5196 275.507C8.201 268.512 0.0278 260.093 0 250.25V35.75C0 25.9187 8.1732 17.5056 24.5196 10.5105C40.866 3.51541 60.4928 0.0119167 83.4 0Z" fill="#B19754"/>
<path d="M711.829 68.0836L637.663 4.5H750.6C773.094 4.5 792.1 7.93834 807.749 14.6465C823.853 21.5498 829.519 28.8782 829.5 35.7373V35.75V250.25C829.5 257.136 823.815 264.473 807.747 271.372C792.128 278.079 773.125 281.512 750.602 281.5H750.6H83.4C60.9043 281.5 41.9132 278.067 26.2925 271.371C10.233 264.487 4.52275 257.149 4.5 250.243V35.75C4.5 28.8698 10.1902 21.5372 26.29 14.6476C41.5549 8.11535 59.9986 4.68357 81.7434 4.50714L163.871 74.9164L165.135 76H166.8H291.9H304.063L294.829 68.0836L220.663 4.5H290.235L372.371 74.9164L373.635 76H375.3H500.4H512.563L503.329 68.0836L429.163 4.5H498.735L580.871 74.9164L582.135 76H583.8H708.9H721.063L711.829 68.0836Z" stroke="black" stroke-width="9"/>
</g>
<defs>
<filter id="filter0_dd_54_107" x="-4" y="0" width="842" height="294" filterUnits="userSpaceOnUse" color-interpolation-filters="sRGB">
<feFlood flood-opacity="0" result="BackgroundImageFix"/>
<feColorMatrix in="SourceAlpha" type="matrix" values="0 0 0 0 0 0 0 0 0 0 0 0 0 0 0 0 0 0 127 0" result="hardAlpha"/>
<feOffset dy="4"/>
<feGaussianBlur stdDeviation="2"/>
<feComposite in2="hardAlpha" operator="out"/>
<feColorMatrix type="matrix" values="0 0 0 0 0 0 0 0 0 0 0 0 0 0 0 0 0 0 0.25 0"/>
<feBlend mode="normal" in2="BackgroundImageFix" result="effect1_dropShadow_54_107"/>
<feColorMatrix in="SourceAlpha" type="matrix" values="0 0 0 0 0 0 0 0 0 0 0 0 0 0 0 0 0 0 127 0" result="hardAlpha"/>
<feOffset dy="4"/>
<feGaussianBlur stdDeviation="2"/>
<feComposite in2="hardAlpha" operator="out"/>
<feColorMatrix type="matrix" values="0 0 0 0 0 0 0 0 0 0 0 0 0 0 0 0 0 0 0.25 0"/>
<feBlend mode="normal" in2="effect1_dropShadow_54_107" result="effect2_dropShadow_54_107"/>
<feBlend mode="normal" in="SourceGraphic" in2="effect2_dropShadow_54_107" result="shape"/>
</filter>
</defs>
</svg>
