<svg width="346" height="127" viewBox="0 0 346 127" fill="none" xmlns="http://www.w3.org/2000/svg">
<g filter="url(#filter0_d_54_99)">
<path d="M0 12C0 5.37259 5.37258 0 12 0H334C340.627 0 346 5.37258 346 12V115C346 121.627 340.627 127 334 127H12C5.37259 127 0 121.627 0 115V12Z" fill="#CDB0FB"/>
<path d="M12 1.5H334C339.799 1.5 344.5 6.20101 344.5 12V115C344.5 120.799 339.799 125.5 334 125.5H12C6.20101 125.5 1.5 120.799 1.5 115V12C1.5 6.20101 6.20101 1.5 12 1.5Z" stroke="black" stroke-width="3"/>
</g>
<defs>
<filter id="filter0_d_54_99" x="-4" y="0" width="354" height="135" filterUnits="userSpaceOnUse" color-interpolation-filters="sRGB">
<feFlood flood-opacity="0" result="BackgroundImageFix"/>
<feColorMatrix in="SourceAlpha" type="matrix" values="0 0 0 0 0 0 0 0 0 0 0 0 0 0 0 0 0 0 127 0" result="hardAlpha"/>
<feOffset dy="4"/>
<feGaussianBlur stdDeviation="2"/>
<feComposite in2="hardAlpha" operator="out"/>
<feColorMatrix type="matrix" values="0 0 0 0 0 0 0 0 0 0 0 0 0 0 0 0 0 0 0.25 0"/>
<feBlend mode="normal" in2="BackgroundImageFix" result="effect1_dropShadow_54_99"/>
<feBlend mode="normal" in="SourceGraphic" in2="effect1_dropShadow_54_99" result="shape"/>
</filter>
</defs>
</svg>
